<?xml version="1.0" encoding="UTF-8" standalone="no"?>
<!DOCTYPE svg PUBLIC "-//W3C//DTD SVG 1.1//EN"
 "http://www.w3.org/Graphics/SVG/1.1/DTD/svg11.dtd">
<!-- Generated by graphviz version 2.40.1 (20161225.0304)
 -->
<!-- Title: project Pages: 1 -->
<svg width="448pt" height="116pt"
 viewBox="0.00 0.00 448.47 116.00" xmlns="http://www.w3.org/2000/svg" xmlns:xlink="http://www.w3.org/1999/xlink">
<g id="graph0" class="graph" transform="scale(1 1) rotate(0) translate(4 112)">
<title>project</title>
<polygon fill="#ffffff" stroke="transparent" points="-4,4 -4,-112 444.4725,-112 444.4725,4 -4,4"/>
<!-- harness -->
<g id="node1" class="node">
<title>harness</title>
<ellipse fill="none" stroke="#000000" cx="197.3612" cy="-18" rx="39.9857" ry="18"/>
<text text-anchor="middle" x="197.3612" y="-13.8" font-family="Times,serif" font-size="14.00" fill="#000000">harness</text>
</g>
<!-- compiler -->
<g id="node2" class="node">
<title>compiler</title>
<ellipse fill="none" stroke="#000000" cx="45.3612" cy="-90" rx="45.2227" ry="18"/>
<text text-anchor="middle" x="45.3612" y="-85.8" font-family="Times,serif" font-size="14.00" fill="#000000">compiler</text>
</g>
<!-- harness&#45;&gt;compiler -->
<g id="edge1" class="edge">
<title>harness&#45;&gt;compiler</title>
<path fill="none" stroke="#000000" d="M169.482,-31.2059C145.4089,-42.609 110.3932,-59.1954 83.6862,-71.846"/>
<polygon fill="#000000" stroke="#000000" points="82.1567,-68.6976 74.6177,-76.1417 85.1534,-75.0238 82.1567,-68.6976"/>
</g>
<!-- services -->
<g id="node3" class="node">
<title>services</title>
<ellipse fill="none" stroke="#000000" cx="150.3612" cy="-90" rx="42.27" ry="18"/>
<text text-anchor="middle" x="150.3612" y="-85.8" font-family="Times,serif" font-size="14.00" fill="#000000">services</text>
</g>
<!-- harness&#45;&gt;services -->
<g id="edge2" class="edge">
<title>harness&#45;&gt;services</title>
<path fill="none" stroke="#000000" d="M185.9838,-35.4292C180.425,-43.9447 173.6201,-54.3692 167.4528,-63.817"/>
<polygon fill="#000000" stroke="#000000" points="164.3321,-62.1948 161.7967,-72.4818 170.1938,-66.0211 164.3321,-62.1948"/>
</g>
<!-- server -->
<g id="node4" class="node">
<title>server</title>
<ellipse fill="none" stroke="#000000" cx="245.3612" cy="-90" rx="34.7476" ry="18"/>
<text text-anchor="middle" x="245.3612" y="-85.8" font-family="Times,serif" font-size="14.00" fill="#000000">server</text>
</g>
<!-- harness&#45;&gt;server -->
<g id="edge3" class="edge">
<title>harness&#45;&gt;server</title>
<path fill="none" stroke="#000000" d="M208.9806,-35.4292C214.7586,-44.0962 221.855,-54.7408 228.2414,-64.3204"/>
<polygon fill="#000000" stroke="#000000" points="225.3895,-66.3523 233.8487,-72.7313 231.2138,-62.4693 225.3895,-66.3523"/>
</g>
<!-- typingsInstaller -->
<g id="node5" class="node">
<title>typingsInstaller</title>
<ellipse fill="none" stroke="#000000" cx="369.3612" cy="-90" rx="71.223" ry="18"/>
<text text-anchor="middle" x="369.3612" y="-85.8" font-family="Times,serif" font-size="14.00" fill="#000000">typingsInstaller</text>
</g>
<!-- harness&#45;&gt;typingsInstaller -->
<g id="edge4" class="edge">
<title>harness&#45;&gt;typingsInstaller</title>
<path fill="none" stroke="#000000" d="M226.929,-30.3772C253.2766,-41.4065 292.2764,-57.732 322.8082,-70.5127"/>
<polygon fill="#000000" stroke="#000000" points="321.8209,-73.8937 332.3968,-74.5266 324.5239,-67.4366 321.8209,-73.8937"/>
</g>
</g>
</svg>
